{
  "accessors": [
    {
      "bufferView": 3,
      "componentType": 5126,
      "count": 2386,
      "max": [
        2.0847766399383545,
        1.174484133720398,
        0.3795934319496155
      ],
      "min": [
        1.5050513744354248,
        0.4669748544692993,
        -0.3795930743217468
      ],
      "type": "VEC3"
    },
    {
      "bufferView": 3,
      "byteOffset": 28632,
      "componentType": 5126,
      "count": 2386,
      "max": [
        0.9999379515647888,
        0.9990312457084656,
        1.0
      ],
      "min": [
        -0.9999860525131226,
        -1.0,
        -1.0
      ],
      "type": "VEC3"
    },
    {
      "bufferView": 2,
      "componentType": 5126,
      "count": 2386,
      "max": [
        0.9872000217437744,
        0.9868999719619751
      ],
      "min": [
        0.007000000216066837,
        0.0066999997943639755
      ],
      "type": "VEC2"
    },
    {
      "bufferView": 1,
      "componentType": 5125,
      "count": 11652,
      "type": "SCALAR"
    },
    {
      "bufferView": 3,
      "byteOffset": 57264,
      "componentType": 5126,
      "count": 2484,
      "max": [
        1.9156509637832642,
        0.6361006498336792,
        0.7216032147407532
      ],
      "min": [
        1.6469290256500244,
        -2.9544096946665377e-08,
        -0.7216029763221741
      ],
      "type": "VEC3"
    },
    {
      "bufferView": 3,
      "byteOffset": 87072,
      "componentType": 5126,
      "count": 2484,
      "max": [
        1.0,
        1.0,
        1.0
      ],
      "min": [
        -1.0,
        -1.0,
        -1.0
      ],
      "type": "VEC3"
    },
    {
      "bufferView": 2,
      "byteOffset": 19088,
      "componentType": 5126,
      "count": 2484,
      "max": [
        0.9940999746322632,
        0.9911999702453613
      ],
      "min": [
        0.012900000438094139,
        0.010700000450015068
      ],
      "type": "VEC2"
    },
    {
      "bufferView": 1,
      "byteOffset": 46608,
      "componentType": 5125,
      "count": 11604,
      "type": "SCALAR"
    },
    {
      "bufferView": 5,
      "componentType": 5126,
      "count": 29,
      "max": [
        1.3270548582077026,
        1.32705557346344,
        1.3265095949172974,
        0.0,
        1.316855549812317,
        1.326509714126587,
        1.3270519971847534,
        0.0,
        1.3270533084869385,
        1.3270490169525146,
        1.0,
        0.0,
        2.3099966049194336,
        1.1512962579727173,
        2.368669033050537,
        1.0
      ],
      "min": [
        -1.3270483016967773,
        -0.2842600345611572,
        -1.326122522354126,
        0.0,
        -1.3245471715927124,
        -1.320581078529358,
        -1.3226250410079956,
        0.0,
        -1.3270533084869385,
        -1.3270533084869385,
        -0.9701705574989319,
        0.0,
        -2.3040573596954346,
        -2.542841672897339,
        -2.4828529357910156,
        1.0
      ],
      "type": "MAT4"
    },
    {
      "bufferView": 0,
      "componentType": 5123,
      "count": 2386,
      "type": "VEC4"
    },
    {
      "bufferView": 4,
      "componentType": 5126,
      "count": 2386,
      "max": [
        1.0,
        0.4946194291114807,
        0.3143745958805084,
        0.23966723680496216
      ],
      "min": [
        0.2618946135044098,
        0.0,
        0.0,
        0.0
      ],
      "type": "VEC4"
    },
    {
      "bufferView": 0,
      "byteOffset": 19088,
      "componentType": 5123,
      "count": 2484,
      "type": "VEC4"
    },
    {
      "bufferView": 4,
      "byteOffset": 38176,
      "componentType": 5126,
      "count": 2484,
      "max": [
        1.0,
        0.4990617632865906,
        0.2884625494480133,
        0.22642047703266144
      ],
      "min": [
        0.278209388256073,
        0.0,
        0.0,
        0.0
      ],
      "type": "VEC4"
    }
  ],
  "asset": {
    "extras": {
      "author": "FreeModeler12345 (https://sketchfab.com/FreeModeler12345)",
      "license": "CC-BY-4.0 (http://creativecommons.org/licenses/by/4.0/)",
      "source": "https://sketchfab.com/3d-models/spongebob-rig-5009dc11dd1f45d3ac8dda79b06e09db",
      "title": "Spongebob Rig"
    },
    "generator": "Sketchfab-12.66.0",
    "version": "2.0"
  },
  "bufferViews": [
    {
      "buffer": 0,
      "byteLength": 38960,
      "byteStride": 8,
      "name": "shortBufferViews",
      "target": 34962
    },
    {
      "buffer": 0,
      "byteLength": 93024,
      "byteOffset": 38960,
      "name": "floatBufferViews",
      "target": 34963
    },
    {
      "buffer": 0,
      "byteLength": 38960,
      "byteOffset": 131984,
      "byteStride": 8,
      "name": "floatBufferViews",
      "target": 34962
    },
    {
      "buffer": 0,
      "byteLength": 116880,
      "byteOffset": 170944,
      "byteStride": 12,
      "name": "floatBufferViews",
      "target": 34962
    },
    {
      "buffer": 0,
      "byteLength": 77920,
      "byteOffset": 287824,
      "byteStride": 16,
      "name": "floatBufferViews",
      "target": 34962
    },
    {
      "buffer": 0,
      "byteLength": 1856,
      "byteOffset": 365744,
      "name": "floatBufferViews"
    }
  ],
  "buffers": [
    {
      "byteLength": 367600,
      "uri": "scene.bin"
    }
  ],
  "images": [
    {
      "uri": "textures/wire_028149177_baseColor.png"
    }
  ],
  "materials": [
    {
      "doubleSided": true,
      "name": "wire_028149177",
      "pbrMetallicRoughness": {
        "baseColorTexture": {
          "index": 0
        },
        "metallicFactor": 0.0,
        "roughnessFactor": 0.819225
      }
    },
    {
      "doubleSided": true,
      "name": "wire_087225087",
      "pbrMetallicRoughness": {
        "baseColorTexture": {
          "index": 0
        },
        "metallicFactor": 0.0,
        "roughnessFactor": 0.819225
      }
    }
  ],
  "meshes": [
    {
      "name": "Object_0",
      "primitives": [
        {
          "attributes": {
            "JOINTS_0": 9,
            "NORMAL": 1,
            "POSITION": 0,
            "TEXCOORD_0": 2,
            "WEIGHTS_0": 10
          },
          "indices": 3,
          "material": 0,
          "mode": 4
        }
      ]
    },
    {
      "name": "Object_1",
      "primitives": [
        {
          "attributes": {
            "JOINTS_0": 11,
            "NORMAL": 5,
            "POSITION": 4,
            "TEXCOORD_0": 6,
            "WEIGHTS_0": 12
          },
          "indices": 7,
          "material": 1,
          "mode": 4
        }
      ]
    }
  ],
  "nodes": [
    {
      "children": [
        1
      ],
      "matrix": [
        1.0,
        0.0,
        0.0,
        0.0,
        0.0,
        2.220446049250313e-16,
        -1.0,
        0.0,
        0.0,
        1.0,
        2.220446049250313e-16,
        0.0,
        0.0,
        0.0,
        0.0,
        1.0
      ],
      "name": "Sketchfab_model"
    },
    {
      "children": [
        2
      ],
      "name": "root"
    },
    {
      "children": [
        3
      ],
      "matrix": [
        1.0,
        0.0,
        0.0,
        0.0,
        0.0,
        2.220446049250313e-16,
        1.0,
        0.0,
        0.0,
        -1.0,
        2.220446049250313e-16,
        0.0,
        0.0,
        0.0,
        0.0,
        1.0
      ],
      "name": "GLTF_SceneRootNode"
    },
    {
      "children": [
        4
      ],
      "matrix": [
        0.0,
        0.0,
        -0.7535505890846252,
        0.0,
        0.0,
        0.7535505890846252,
        0.0,
        0.0,
        0.7535505890846252,
        0.0,
        0.0,
        0.0,
        1.820000171661377,
        0.0,
        0.0,
        1.0
      ],
      "name": "metarig_31"
    },
    {
      "children": [
        5,
        7,
        8,
        6
      ],
      "name": "GLTF_created_0"
    },
    {
      "children": [
        9
      ],
      "name": "GLTF_created_0_rootJoint"
    },
    {
      "name": "SpongeBobDefault_Head_30"
    },
    {
      "mesh": 0,
      "name": "Object_7",
      "skin": 0
    },
    {
      "mesh": 1,
      "name": "Object_8",
      "skin": 0
    },
    {
      "children": [
        10,
        25,
        26,
        27,
        32
      ],
      "name": "spine_29",
      "rotation": [
        0.1258196085691452,
        0.0,
        0.0,
        0.9920531511306763
      ],
      "scale": [
        1.0,
        0.9999999403953552,
        0.9999998807907104
      ],
      "translation": [
        0.0,
        1.0098999738693237,
        -0.0551999993622303
      ]
    },
    {
      "children": [
        11
      ],
      "name": "spine.001_16",
      "rotation": [
        -0.0644763931632042,
        0.0,
        0.0,
        0.9979192614555359
      ],
      "scale": [
        1.0,
        1.0000001192092896,
        1.0
      ],
      "translation": [
        0.0,
        0.15221953392028809,
        -1.4901161193847656e-08
      ]
    },
    {
      "children": [
        12
      ],
      "name": "spine.002_15",
      "rotation": [
        -0.07746415585279465,
        0.0,
        0.0,
        0.9969951510429382
      ],
      "scale": [
        1.0,
        0.9999999403953552,
        0.9999999403953552
      ],
      "translation": [
        0.0,
        0.13663654029369354,
        2.1032741770454777e-08
      ]
    },
    {
      "children": [
        13,
        16,
        20,
        23,
        24
      ],
      "name": "spine.003_14",
      "rotation": [
        0.0016271488275378942,
        0.0,
        0.0,
        0.9999986886978149
      ],
      "translation": [
        0.0,
        0.17288750410079956,
        0.0
      ]
    },
    {
      "children": [
        14
      ],
      "name": "spine.004_4",
      "rotation": [
        0.20173780620098114,
        0.0,
        0.0,
        0.9794395565986633
      ],
      "scale": [
        1.0,
        1.0,
        1.0000001192092896
      ],
      "translation": [
        0.0,
        0.19257846474647522,
        -9.313225746154785e-10
      ]
    },
    {
      "children": [
        15
      ],
      "name": "jaw_3",
      "rotation": [
        0.5951059460639954,
        0.0,
        0.0,
        0.8036472797393799
      ],
      "scale": [
        1.0,
        0.9999998807907104,
        1.0
      ],
      "translation": [
        0.0,
        0.11871354281902313,
        0.06683090329170227
      ]
    },
    {
      "name": "chin_2",
      "rotation": [
        -0.5997742414474487,
        0.0,
        0.0,
        0.8001692295074463
      ],
      "scale": [
        1.0,
        0.9999997615814209,
        0.9999997019767761
      ],
      "translation": [
        0.0,
        0.05759207159280777,
        2.4083760763460305e-08
      ]
    },
    {
      "children": [
        17
      ],
      "name": "upper_arm.L_8",
      "rotation": [
        -0.02362632192671299,
        0.12928441166877747,
        -0.6968535780906677,
        0.7050691843032837
      ],
      "scale": [
        1.0,
        1.0000001192092896,
        1.0
      ],
      "translation": [
        0.2153729647397995,
        -0.6800860166549683,
        -0.040239524096250534
      ]
    },
    {
      "children": [
        18
      ],
      "name": "forearm.L_7",
      "rotation": [
        0.12627920508384705,
        -0.0516887828707695,
        -0.5171566009521484,
        0.8449442982673645
      ],
      "scale": [
        1.0,
        0.9999998211860657,
        0.9999999403953552
      ],
      "translation": [
        -4.6125176567102244e-08,
        0.2885097861289978,
        -1.9526236627598337e-08
      ]
    },
    {
      "children": [
        19
      ],
      "name": "hand.L_6",
      "rotation": [
        0.024661218747496605,
        0.016656354069709778,
        0.006045421119779348,
        0.9995388388633728
      ],
      "scale": [
        0.9999999403953552,
        1.0,
        1.0
      ],
      "translation": [
        9.505001230536436e-08,
        0.25784844160079956,
        -6.183850320695683e-09
      ]
    },
    {
      "name": "palm.02.L_5",
      "rotation": [
        -0.0636778473854065,
        0.6783010959625244,
        0.12325692921876907,
        0.7215681076049805
      ],
      "scale": [
        1.0,
        1.0,
        0.9999999403953552
      ],
      "translation": [
        0.0022417891304939985,
        0.02989157848060131,
        0.006940248887985945
      ]
    },
    {
      "children": [
        21
      ],
      "name": "upper_arm.R_11",
      "rotation": [
        0.046717166900634766,
        -0.08500334620475769,
        0.7141759395599365,
        0.6932133436203003
      ],
      "scale": [
        0.9999998807907104,
        1.0000001192092896,
        0.9999999403953552
      ],
      "translation": [
        -0.3074454963207245,
        -0.6809489727020264,
        -0.08296826481819153
      ]
    },
    {
      "children": [
        22
      ],
      "name": "forearm.R_10",
      "rotation": [
        0.0789351835846901,
        0.12697066366672516,
        0.40252429246902466,
        0.9031178951263428
      ],
      "scale": [
        1.0000001192092896,
        1.0000001192092896,
        1.0
      ],
      "translation": [
        -2.8106845739728215e-09,
        0.2930995225906372,
        8.983525923156321e-09
      ]
    },
    {
      "name": "hand.R_9",
      "rotation": [
        -0.11244241148233414,
        -0.011178023181855679,
        0.12602731585502625,
        0.9855703115463257
      ],
      "scale": [
        1.0000001192092896,
        1.000000238418579,
        1.0
      ],
      "translation": [
        -5.804345803994693e-08,
        0.2474413812160492,
        5.489009247128251e-10
      ]
    },
    {
      "name": "breast.L_12",
      "rotation": [
        3.1346875317694867e-08,
        0.6969361305236816,
        0.7171332240104675,
        3.046403662665398e-08
      ],
      "scale": [
        1.0,
        0.9999995827674866,
        0.9999998807907104
      ],
      "translation": [
        0.11840000748634338,
        -0.004881198517978191,
        -0.04275684803724289
      ]
    },
    {
      "name": "breast.R_13",
      "rotation": [
        3.1346875317694867e-08,
        0.6969361305236816,
        0.7171332240104675,
        3.046403662665398e-08
      ],
      "scale": [
        1.0,
        0.9999995827674866,
        0.9999998807907104
      ],
      "translation": [
        -0.11840000748634338,
        -0.004881198517978191,
        -0.04275684803724289
      ]
    },
    {
      "name": "pelvis.L_17",
      "rotation": [
        -0.1524551659822464,
        -0.793330729007721,
        -0.28550395369529724,
        0.5156271457672119
      ],
      "scale": [
        1.0000001192092896,
        1.0000001192092896,
        1.0
      ],
      "translation": [
        -1.2569787877225735e-08,
        1.9854830668464274e-08,
        3.442701412836868e-08
      ]
    },
    {
      "name": "pelvis.R_18",
      "rotation": [
        -0.1524551659822464,
        0.793330729007721,
        0.28550395369529724,
        0.5156271457672119
      ],
      "scale": [
        1.0000001192092896,
        1.0000001192092896,
        1.0
      ],
      "translation": [
        1.2569787877225735e-08,
        1.9854830668464274e-08,
        3.442701412836868e-08
      ]
    },
    {
      "children": [
        28
      ],
      "name": "thigh.L_23",
      "rotation": [
        0.9908557534217834,
        0.08577556163072586,
        -0.019042886793613434,
        0.1023956760764122
      ],
      "scale": [
        0.999998152256012,
        0.9999998211860657,
        0.9999971985816956
      ],
      "translation": [
        0.09800002723932266,
        0.07081852853298187,
        0.025942280888557434
      ]
    },
    {
      "children": [
        29
      ],
      "name": "shin.L_22",
      "rotation": [
        0.02611180767416954,
        0.012408706359565258,
        0.08699459582567215,
        0.9957892298698425
      ],
      "scale": [
        0.9999998807907104,
        0.9999998807907104,
        0.9999998807907104
      ],
      "translation": [
        -1.2997622533816866e-08,
        0.5122635960578918,
        -6.620512471577911e-10
      ]
    },
    {
      "children": [
        30,
        31
      ],
      "name": "foot.L_21",
      "rotation": [
        -0.527363657951355,
        -8.438100884688993e-09,
        -1.1129253074670942e-08,
        0.8496396541595459
      ],
      "scale": [
        0.9999999403953552,
        1.0,
        1.0
      ],
      "translation": [
        -3.4896538991802117e-09,
        0.4542151093482971,
        5.816104486910945e-09
      ]
    },
    {
      "name": "toe.L_19",
      "rotation": [
        1.2050541009500648e-08,
        0.9612489342689514,
        -0.27568182349205017,
        -4.201750414267735e-08
      ],
      "scale": [
        1.0,
        0.999999463558197,
        1.0
      ],
      "translation": [
        1.4901162970204496e-08,
        0.12924598157405853,
        1.906168778376127e-09
      ]
    },
    {
      "name": "heel.02.L_20",
      "rotation": [
        0.6797072291374207,
        0.6797040700912476,
        -0.19493672251701355,
        0.19493627548217773
      ],
      "scale": [
        1.0,
        0.9999999403953552,
        0.9999998807907104
      ],
      "translation": [
        -0.038000062108039856,
        0.019970519468188286,
        0.0879904255270958
      ]
    },
    {
      "children": [
        33
      ],
      "name": "thigh.R_28",
      "rotation": [
        0.9899691343307495,
        -0.08828435093164444,
        0.019367538392543793,
        0.10859129577875137
      ],
      "scale": [
        1.000001311302185,
        0.9999999403953552,
        1.0000017881393433
      ],
      "translation": [
        -0.09799998998641968,
        0.07081840187311172,
        0.025942305102944374
      ]
    },
    {
      "children": [
        34
      ],
      "name": "shin.R_27",
      "rotation": [
        0.03235934302210808,
        -0.01254083402454853,
        -0.08950251340866089,
        0.9953818321228027
      ],
      "scale": [
        1.000000238418579,
        1.0,
        1.0
      ],
      "translation": [
        2.3632310330867767e-08,
        0.5241640210151672,
        -4.423782229423523e-09
      ]
    },
    {
      "children": [
        35,
        36
      ],
      "name": "foot.R_26",
      "rotation": [
        -0.527363657951355,
        2.9948228075227235e-07,
        -1.9391728756090743e-07,
        0.8496396541595459
      ],
      "scale": [
        1.0,
        1.0000001192092896,
        1.0000001192092896
      ],
      "translation": [
        -1.5422024768341203e-09,
        0.4542146623134613,
        9.308429582688404e-09
      ]
    },
    {
      "name": "toe.R_24",
      "rotation": [
        1.106423965779868e-07,
        0.9612485766410828,
        -0.27568304538726807,
        3.0175181109370897e-07
      ],
      "scale": [
        1.0,
        1.0,
        1.0000001192092896
      ],
      "translation": [
        5.024665572506137e-09,
        0.12924528121948242,
        -3.2025053720019514e-09
      ]
    },
    {
      "name": "heel.02.R_25",
      "rotation": [
        0.6797043085098267,
        -0.6797066330909729,
        0.1949373036623001,
        0.19493700563907623
      ],
      "scale": [
        1.0000001192092896,
        1.0,
        1.0000001192092896
      ],
      "translation": [
        0.037999898195266724,
        0.019970262423157692,
        0.08799046277999878
      ]
    }
  ],
  "samplers": [
    {
      "magFilter": 9729,
      "minFilter": 9987,
      "wrapS": 10497,
      "wrapT": 10497
    }
  ],
  "scene": 0,
  "scenes": [
    {
      "name": "Sketchfab_Scene",
      "nodes": [
        0
      ]
    }
  ],
  "skins": [
    {
      "inverseBindMatrices": 8,
      "joints": [
        5,
        9,
        10,
        11,
        12,
        13,
        14,
        15,
        16,
        17,
        18,
        19,
        20,
        21,
        22,
        23,
        24,
        25,
        26,
        27,
        28,
        29,
        30,
        31,
        32,
        33,
        34,
        35,
        36
      ],
      "skeleton": 5
    }
  ],
  "textures": [
    {
      "sampler": 0,
      "source": 0
    }
  ]
}
